ffmpeg started on 2025-05-12 at 13:02:47
Report written to "D:\Convert\FFMetrics\reports\psnr_report-6.txt"
Log level: 32
Command line:
ffmpeg -hide_banner -nostdin -i "G:\\\xc0\xed\xe8\xec\xe5\\\xce\xed\xe3\xee\xe8\xed\xe3\xe8\\!_35_\xcb\xe5\xf2\xee_2024\\DreamCast\\\xc0\xeb\xff \xe8\xed\xee\xe3\xe4\xe0 \xea\xee\xea\xe5\xf2\xed\xe8\xf7\xe0\xe5\xf2 \xf1\xee \xec\xed\xee\xe9 \xef\xee-\xf0\xf3\xf1\xf1\xea\xe8\\[DC] Roshidere - 03_Telegram_HEVC.mkv" -i "G:\\\xc0\xed\xe8\xec\xe5\\\xce\xed\xe3\xee\xe8\xed\xe3\xe8\\!_35_\xcb\xe5\xf2\xee_2024\\DreamCast\\\xc0\xeb\xff \xe8\xed\xee\xe3\xe4\xe0 \xea\xee\xea\xe5\xf2\xed\xe8\xf7\xe0\xe5\xf2 \xf1\xee \xec\xed\xee\xe9 \xef\xee-\xf0\xf3\xf1\xf1\xea\xe8\\[DC] Roshidere - 03_Telegram.mp4" -lavfi "[0:v]settb=AVTB,setpts=PTS-STARTPTS,format=pix_fmts=yuv420p10,fps=24000/1001,scale=1920:1080:flags=bicubic[main];[1:v]settb=AVTB,setpts=PTS-STARTPTS,format=pix_fmts=yuv420p,fps=24000/1001,scale=1920:1080:flags=bicubic[ref];[main][ref]psnr=eof_action=endall:stats_file='D\\:/Convert/FFMetrics/logs/psnr_logfile-6.txt'" -f null -
Input #0, matroska,webm, from 'G:\Аниме\Онгоинги\!_35_Лето_2024\DreamCast\Аля иногда кокетничает со мной по-русски\[DC] Roshidere - 03_Telegram_HEVC.mkv':
  Metadata:
    COMPATIBLE_BRANDS: isomiso2avc1mp41
    MAJOR_BRAND     : isom
    MINOR_VERSION   : 512
    ENCODER         : Lavf61.7.100
  Duration: 00:24:47.02, start: -0.021000, bitrate: 1017 kb/s
  Stream #0:0: Video: hevc (Main 10), yuv420p10le(tv, bt709, progressive), 1920x1080 [SAR 1:1 DAR 16:9], 23.98 fps, 23.98 tbr, 1k tbn (default)
      Metadata:
        HANDLER_NAME    : VideoHandler
        VENDOR_ID       : [0][0][0][0]
        ENCODER         : Lavc61.19.100 libx265
        BPS             : 820356
        DURATION        : 00:24:46.568708333
        NUMBER_OF_FRAMES: 35642
        NUMBER_OF_BYTES : 152439378
        _STATISTICS_WRITING_APP: mkvpropedit v66.0.0 ('Josie') 64-bit
        _STATISTICS_WRITING_DATE_UTC: 2025-05-06 11:44:23
        _STATISTICS_TAGS: BPS DURATION NUMBER_OF_FRAMES NUMBER_OF_BYTES
  Stream #0:1: Audio: aac (LC), 48000 Hz, stereo, fltp (default)
      Metadata:
        HANDLER_NAME    : SoundHandler
        VENDOR_ID       : [0][0][0][0]
        ENCODER         : Lavc61.19.100 aac
        BPS             : 193468
        DURATION        : 00:24:47.018000000
        NUMBER_OF_FRAMES: 69705
        NUMBER_OF_BYTES : 35961325
        _STATISTICS_WRITING_APP: mkvpropedit v66.0.0 ('Josie') 64-bit
        _STATISTICS_WRITING_DATE_UTC: 2025-05-06 11:44:23
        _STATISTICS_TAGS: BPS DURATION NUMBER_OF_FRAMES NUMBER_OF_BYTES
Input #1, mov,mp4,m4a,3gp,3g2,mj2, from 'G:\Аниме\Онгоинги\!_35_Лето_2024\DreamCast\Аля иногда кокетничает со мной по-русски\[DC] Roshidere - 03_Telegram.mp4':
  Metadata:
    major_brand     : isom
    minor_version   : 512
    compatible_brands: isomiso2avc1mp41
    encoder         : Lavf61.1.100
  Duration: 00:24:46.99, start: 0.000000, bitrate: 3720 kb/s
  Stream #1:0[0x1](und): Video: h264 (High) (avc1 / 0x31637661), yuv420p(tv, bt709, progressive), 1920x1080 [SAR 1:1 DAR 16:9], 3573 kb/s, 23.98 fps, 23.98 tbr, 24k tbn (default)
      Metadata:
        handler_name    : VideoHandler
        vendor_id       : [0][0][0][0]
        encoder         : Lavc61.3.100 h264_qsv
  Stream #1:1[0x2](und): Audio: aac (HE-AACv2) (mp4a / 0x6134706D), 48000 Hz, stereo, fltp, 144 kb/s (default)
      Metadata:
        handler_name    : SoundHandler
        vendor_id       : [0][0][0][0]
Stream mapping:
  Stream #0:0 (hevc) -> settb:default
  Stream #1:0 (h264) -> settb:default
  psnr:default -> Stream #0:0 (wrapped_avframe)
  Stream #0:1 -> #0:1 (aac (native) -> pcm_s16le (native))
Output #0, null, to 'pipe:':
  Metadata:
    COMPATIBLE_BRANDS: isomiso2avc1mp41
    MAJOR_BRAND     : isom
    MINOR_VERSION   : 512
    encoder         : Lavf61.7.100
  Stream #0:0: Video: wrapped_avframe, yuv420p10le(tv, bt709, progressive), 1920x1080 [SAR 1:1 DAR 16:9], q=2-31, 200 kb/s, 23.98 fps, 23.98 tbn
      Metadata:
        encoder         : Lavc61.19.100 wrapped_avframe
  Stream #0:1: Audio: pcm_s16le, 48000 Hz, stereo, s16, 1536 kb/s (default)
      Metadata:
        HANDLER_NAME    : SoundHandler
        VENDOR_ID       : [0][0][0][0]
        _STATISTICS_TAGS: BPS DURATION NUMBER_OF_FRAMES NUMBER_OF_BYTES
        BPS             : 193468
        DURATION        : 00:24:47.018000000
        NUMBER_OF_FRAMES: 69705
        NUMBER_OF_BYTES : 35961325
        _STATISTICS_WRITING_APP: mkvpropedit v66.0.0 ('Josie') 64-bit
        _STATISTICS_WRITING_DATE_UTC: 2025-05-06 11:44:23
        encoder         : Lavc61.19.100 pcm_s16le
frame=  162 fps=0.0 q=-0.0 size=N/A time=00:00:06.75 bitrate=N/A speed=13.3x    frame=  334 fps=324 q=-0.0 size=N/A time=00:00:13.93 bitrate=N/A speed=13.5x    frame=  522 fps=336 q=-0.0 size=N/A time=00:00:21.77 bitrate=N/A speed=  14x    frame=  723 fps=352 q=-0.0 size=N/A time=00:00:30.15 bitrate=N/A speed=14.7x    frame=  914 fps=355 q=-0.0 size=N/A time=00:00:38.12 bitrate=N/A speed=14.8x    frame= 1100 fps=355 q=-0.0 size=N/A time=00:00:45.87 bitrate=N/A speed=14.8x    frame= 1320 fps=366 q=-0.0 size=N/A time=00:00:55.05 bitrate=N/A speed=15.3x    frame= 1473 fps=357 q=-0.0 size=N/A time=00:01:01.43 bitrate=N/A speed=14.9x    frame= 1628 fps=351 q=-0.0 size=N/A time=00:01:07.90 bitrate=N/A speed=14.6x    frame= 1810 fps=351 q=-0.0 size=N/A time=00:01:15.49 bitrate=N/A speed=14.6x    frame= 1996 fps=352 q=-0.0 size=N/A time=00:01:23.24 bitrate=N/A speed=14.7x    frame= 2220 fps=359 q=-0.0 size=N/A time=00:01:32.59 bitrate=N/A speed=  15x    frame= 2468 fps=368 q=-0.0 size=N/A time=00:01:42.93 bitrate=N/A speed=15.4x    frame= 2713 fps=376 q=-0.0 size=N/A time=00:01:53.15 bitrate=N/A speed=15.7x    frame= 2963 fps=384 q=-0.0 size=N/A time=00:02:03.58 bitrate=N/A speed=  16x    frame= 3214 fps=390 q=-0.0 size=N/A time=00:02:14.09 bitrate=N/A speed=16.3x    frame= 3488 fps=398 q=-0.0 size=N/A time=00:02:25.47 bitrate=N/A speed=16.6x    frame= 3739 fps=403 q=-0.0 size=N/A time=00:02:35.94 bitrate=N/A speed=16.8x    frame= 3992 fps=408 q=-0.0 size=N/A time=00:02:46.49 bitrate=N/A speed=  17x    frame= 4253 fps=412 q=-0.0 size=N/A time=00:02:57.38 bitrate=N/A speed=17.2x    frame= 4499 fps=415 q=-0.0 size=N/A time=00:03:07.64 bitrate=N/A speed=17.3x    frame= 4714 fps=415 q=-0.0 size=N/A time=00:03:16.61 bitrate=N/A speed=17.3x    frame= 4956 fps=418 q=-0.0 size=N/A time=00:03:26.70 bitrate=N/A speed=17.4x    frame= 5218 fps=422 q=-0.0 size=N/A time=00:03:37.63 bitrate=N/A speed=17.6x    frame= 5441 fps=422 q=-0.0 size=N/A time=00:03:46.93 bitrate=N/A speed=17.6x    frame= 5694 fps=425 q=-0.0 size=N/A time=00:03:57.48 bitrate=N/A speed=17.7x    frame= 5945 fps=427 q=-0.0 size=N/A time=00:04:07.95 bitrate=N/A speed=17.8x    frame= 6200 fps=430 q=-0.0 size=N/A time=00:04:18.59 bitrate=N/A speed=17.9x    frame= 6475 fps=433 q=-0.0 size=N/A time=00:04:30.06 bitrate=N/A speed=18.1x    frame= 6744 fps=436 q=-0.0 size=N/A time=00:04:41.28 bitrate=N/A speed=18.2x    frame= 7000 fps=438 q=-0.0 size=N/A time=00:04:51.95 bitrate=N/A speed=18.3x    frame= 7265 fps=440 q=-0.0 size=N/A time=00:05:03.01 bitrate=N/A speed=18.4x    frame= 7503 fps=441 q=-0.0 size=N/A time=00:05:12.93 bitrate=N/A speed=18.4x    frame= 7766 fps=443 q=-0.0 size=N/A time=00:05:23.90 bitrate=N/A speed=18.5x    frame= 8021 fps=444 q=-0.0 size=N/A time=00:05:34.54 bitrate=N/A speed=18.5x    frame= 8258 fps=445 q=-0.0 size=N/A time=00:05:44.42 bitrate=N/A speed=18.5x    frame= 8512 fps=446 q=-0.0 size=N/A time=00:05:55.02 bitrate=N/A speed=18.6x    frame= 8758 fps=447 q=-0.0 size=N/A time=00:06:05.28 bitrate=N/A speed=18.6x    frame= 8959 fps=446 q=-0.0 size=N/A time=00:06:13.66 bitrate=N/A speed=18.6x    frame= 9225 fps=447 q=-0.0 size=N/A time=00:06:24.75 bitrate=N/A speed=18.7x    frame= 9472 fps=448 q=-0.0 size=N/A time=00:06:35.06 bitrate=N/A speed=18.7x    frame= 9719 fps=449 q=-0.0 size=N/A time=00:06:45.36 bitrate=N/A speed=18.7x    frame= 9976 fps=450 q=-0.0 size=N/A time=00:06:56.08 bitrate=N/A speed=18.8x    frame=10219 fps=450 q=-0.0 size=N/A time=00:07:06.21 bitrate=N/A speed=18.8x    frame=10459 fps=451 q=-0.0 size=N/A time=00:07:16.22 bitrate=N/A speed=18.8x    frame=10703 fps=451 q=-0.0 size=N/A time=00:07:26.40 bitrate=N/A speed=18.8x    frame=10960 fps=452 q=-0.0 size=N/A time=00:07:37.12 bitrate=N/A speed=18.9x    frame=11193 fps=452 q=-0.0 size=N/A time=00:07:46.84 bitrate=N/A speed=18.9x    frame=11463 fps=453 q=-0.0 size=N/A time=00:07:58.10 bitrate=N/A speed=18.9x    frame=11722 fps=455 q=-0.0 size=N/A time=00:08:08.90 bitrate=N/A speed=  19x    frame=11984 fps=455 q=-0.0 size=N/A time=00:08:19.83 bitrate=N/A speed=  19x    frame=12254 fps=457 q=-0.0 size=N/A time=00:08:31.09 bitrate=N/A speed=  19x    frame=12523 fps=458 q=-0.0 size=N/A time=00:08:42.31 bitrate=N/A speed=19.1x    frame=12786 fps=459 q=-0.0 size=N/A time=00:08:53.28 bitrate=N/A speed=19.1x    frame=13035 fps=460 q=-0.0 size=N/A time=00:09:03.66 bitrate=N/A speed=19.2x    frame=13311 fps=461 q=-0.0 size=N/A time=00:09:15.17 bitrate=N/A speed=19.2x    frame=13582 fps=462 q=-0.0 size=N/A time=00:09:26.48 bitrate=N/A speed=19.3x    frame=13850 fps=463 q=-0.0 size=N/A time=00:09:37.66 bitrate=N/A speed=19.3x    frame=14102 fps=463 q=-0.0 size=N/A time=00:09:48.17 bitrate=N/A speed=19.3x    frame=14304 fps=462 q=-0.0 size=N/A time=00:09:56.59 bitrate=N/A speed=19.3x    frame=14555 fps=462 q=-0.0 size=N/A time=00:10:07.06 bitrate=N/A speed=19.3x    frame=14802 fps=463 q=-0.0 size=N/A time=00:10:17.36 bitrate=N/A speed=19.3x    frame=15073 fps=464 q=-0.0 size=N/A time=00:10:28.66 bitrate=N/A speed=19.3x    frame=15326 fps=464 q=-0.0 size=N/A time=00:10:39.22 bitrate=N/A speed=19.4x    frame=15586 fps=465 q=-0.0 size=N/A time=00:10:50.06 bitrate=N/A speed=19.4x    frame=15867 fps=466 q=-0.0 size=N/A time=00:11:01.78 bitrate=N/A speed=19.4x    frame=16097 fps=466 q=-0.0 size=N/A time=00:11:11.37 bitrate=N/A speed=19.4x    frame=16346 fps=466 q=-0.0 size=N/A time=00:11:21.76 bitrate=N/A speed=19.4x    frame=16608 fps=467 q=-0.0 size=N/A time=00:11:32.69 bitrate=N/A speed=19.5x    frame=16820 fps=466 q=-0.0 size=N/A time=00:11:41.53 bitrate=N/A speed=19.4x    frame=17062 fps=466 q=-0.0 size=N/A time=00:11:51.62 bitrate=N/A speed=19.4x    frame=17265 fps=465 q=-0.0 size=N/A time=00:12:00.09 bitrate=N/A speed=19.4x    frame=17501 fps=465 q=-0.0 size=N/A time=00:12:09.93 bitrate=N/A speed=19.4x    frame=17724 fps=464 q=-0.0 size=N/A time=00:12:19.23 bitrate=N/A speed=19.4x    frame=17953 fps=464 q=-0.0 size=N/A time=00:12:28.78 bitrate=N/A speed=19.4x    frame=18234 fps=465 q=-0.0 size=N/A time=00:12:40.50 bitrate=N/A speed=19.4x    frame=18495 fps=466 q=-0.0 size=N/A time=00:12:51.39 bitrate=N/A speed=19.4x    frame=18774 fps=467 q=-0.0 size=N/A time=00:13:03.03 bitrate=N/A speed=19.5x    frame=19042 fps=467 q=-0.0 size=N/A time=00:13:14.25 bitrate=N/A speed=19.5x    frame=19296 fps=468 q=-0.0 size=N/A time=00:13:24.80 bitrate=N/A speed=19.5x    frame=19566 fps=468 q=-0.0 size=N/A time=00:13:36.06 bitrate=N/A speed=19.5x    frame=19816 fps=469 q=-0.0 size=N/A time=00:13:46.49 bitrate=N/A speed=19.5x    frame=20085 fps=469 q=-0.0 size=N/A time=00:13:57.71 bitrate=N/A speed=19.6x    frame=20358 fps=470 q=-0.0 size=N/A time=00:14:09.09 bitrate=N/A speed=19.6x    frame=20634 fps=471 q=-0.0 size=N/A time=00:14:20.60 bitrate=N/A speed=19.6x    frame=20904 fps=471 q=-0.0 size=N/A time=00:14:31.87 bitrate=N/A speed=19.7x    frame=21163 fps=472 q=-0.0 size=N/A time=00:14:42.67 bitrate=N/A speed=19.7x    frame=21433 fps=472 q=-0.0 size=N/A time=00:14:53.93 bitrate=N/A speed=19.7x    frame=21695 fps=473 q=-0.0 size=N/A time=00:15:04.86 bitrate=N/A speed=19.7x    frame=21977 fps=473 q=-0.0 size=N/A time=00:15:16.62 bitrate=N/A speed=19.7x    frame=22222 fps=474 q=-0.0 size=N/A time=00:15:26.84 bitrate=N/A speed=19.7x    frame=22472 fps=474 q=-0.0 size=N/A time=00:15:37.26 bitrate=N/A speed=19.8x    frame=22734 fps=474 q=-0.0 size=N/A time=00:15:48.19 bitrate=N/A speed=19.8x    frame=22993 fps=474 q=-0.0 size=N/A time=00:15:58.99 bitrate=N/A speed=19.8x    frame=23212 fps=474 q=-0.0 size=N/A time=00:16:08.13 bitrate=N/A speed=19.8x    frame=23409 fps=473 q=-0.0 size=N/A time=00:16:16.35 bitrate=N/A speed=19.7x    frame=23614 fps=472 q=-0.0 size=N/A time=00:16:24.90 bitrate=N/A speed=19.7x    frame=23867 fps=472 q=-0.0 size=N/A time=00:16:35.45 bitrate=N/A speed=19.7x    frame=24116 fps=472 q=-0.0 size=N/A time=00:16:45.83 bitrate=N/A speed=19.7x    frame=24356 fps=472 q=-0.0 size=N/A time=00:16:55.84 bitrate=N/A speed=19.7x    frame=24615 fps=472 q=-0.0 size=N/A time=00:17:06.65 bitrate=N/A speed=19.7x    frame=24863 fps=473 q=-0.0 size=N/A time=00:17:16.99 bitrate=N/A speed=19.7x    frame=25118 fps=473 q=-0.0 size=N/A time=00:17:27.62 bitrate=N/A speed=19.7x    frame=25373 fps=473 q=-0.0 size=N/A time=00:17:38.26 bitrate=N/A speed=19.7x    frame=25621 fps=473 q=-0.0 size=N/A time=00:17:48.60 bitrate=N/A speed=19.7x    frame=25884 fps=473 q=-0.0 size=N/A time=00:17:59.57 bitrate=N/A speed=19.7x    frame=26144 fps=474 q=-0.0 size=N/A time=00:18:10.42 bitrate=N/A speed=19.8x    frame=26395 fps=474 q=-0.0 size=N/A time=00:18:20.89 bitrate=N/A speed=19.8x    frame=26641 fps=474 q=-0.0 size=N/A time=00:18:31.15 bitrate=N/A speed=19.8x    frame=26893 fps=474 q=-0.0 size=N/A time=00:18:41.66 bitrate=N/A speed=19.8x    frame=27149 fps=474 q=-0.0 size=N/A time=00:18:52.33 bitrate=N/A speed=19.8x    frame=27407 fps=474 q=-0.0 size=N/A time=00:19:03.10 bitrate=N/A speed=19.8x    frame=27681 fps=475 q=-0.0 size=N/A time=00:19:14.52 bitrate=N/A speed=19.8x    frame=27948 fps=475 q=-0.0 size=N/A time=00:19:25.66 bitrate=N/A speed=19.8x    frame=28195 fps=475 q=-0.0 size=N/A time=00:19:35.96 bitrate=N/A speed=19.8x    frame=28435 fps=475 q=-0.0 size=N/A time=00:19:45.97 bitrate=N/A speed=19.8x    frame=28675 fps=475 q=-0.0 size=N/A time=00:19:55.98 bitrate=N/A speed=19.8x    frame=28907 fps=475 q=-0.0 size=N/A time=00:20:05.66 bitrate=N/A speed=19.8x    frame=29154 fps=475 q=-0.0 size=N/A time=00:20:15.96 bitrate=N/A speed=19.8x    frame=29402 fps=475 q=-0.0 size=N/A time=00:20:26.30 bitrate=N/A speed=19.8x    frame=29634 fps=475 q=-0.0 size=N/A time=00:20:35.98 bitrate=N/A speed=19.8x    frame=29880 fps=475 q=-0.0 size=N/A time=00:20:46.24 bitrate=N/A speed=19.8x    frame=30107 fps=475 q=-0.0 size=N/A time=00:20:55.71 bitrate=N/A speed=19.8x    frame=30312 fps=474 q=-0.0 size=N/A time=00:21:04.26 bitrate=N/A speed=19.8x    frame=30541 fps=474 q=-0.0 size=N/A time=00:21:13.81 bitrate=N/A speed=19.8x    frame=30810 fps=474 q=-0.0 size=N/A time=00:21:25.07 bitrate=N/A speed=19.8x    frame=31048 fps=474 q=-0.0 size=N/A time=00:21:34.96 bitrate=N/A speed=19.8x    frame=31279 fps=474 q=-0.0 size=N/A time=00:21:44.59 bitrate=N/A speed=19.8x    frame=31538 fps=474 q=-0.0 size=N/A time=00:21:55.39 bitrate=N/A speed=19.8x    frame=31801 fps=474 q=-0.0 size=N/A time=00:22:06.36 bitrate=N/A speed=19.8x    frame=32068 fps=475 q=-0.0 size=N/A time=00:22:17.50 bitrate=N/A speed=19.8x    frame=32327 fps=475 q=-0.0 size=N/A time=00:22:28.30 bitrate=N/A speed=19.8x    frame=32580 fps=475 q=-0.0 size=N/A time=00:22:38.85 bitrate=N/A speed=19.8x    frame=32814 fps=475 q=-0.0 size=N/A time=00:22:48.61 bitrate=N/A speed=19.8x    frame=33040 fps=475 q=-0.0 size=N/A time=00:22:58.04 bitrate=N/A speed=19.8x    frame=33298 fps=475 q=-0.0 size=N/A time=00:23:08.80 bitrate=N/A speed=19.8x    frame=33522 fps=474 q=-0.0 size=N/A time=00:23:18.14 bitrate=N/A speed=19.8x    frame=33716 fps=474 q=-0.0 size=N/A time=00:23:26.23 bitrate=N/A speed=19.8x    frame=33898 fps=473 q=-0.0 size=N/A time=00:23:33.82 bitrate=N/A speed=19.7x    frame=34066 fps=472 q=-0.0 size=N/A time=00:23:40.83 bitrate=N/A speed=19.7x    frame=34232 fps=471 q=-0.0 size=N/A time=00:23:47.75 bitrate=N/A speed=19.6x    frame=34411 fps=470 q=-0.0 size=N/A time=00:23:55.22 bitrate=N/A speed=19.6x    frame=34575 fps=469 q=-0.0 size=N/A time=00:24:02.06 bitrate=N/A speed=19.6x    frame=34736 fps=468 q=-0.0 size=N/A time=00:24:08.78 bitrate=N/A speed=19.5x    frame=34932 fps=467 q=-0.0 size=N/A time=00:24:16.95 bitrate=N/A speed=19.5x    frame=35111 fps=466 q=-0.0 size=N/A time=00:24:24.42 bitrate=N/A speed=19.5x    frame=35284 fps=465 q=-0.0 size=N/A time=00:24:31.63 bitrate=N/A speed=19.4x    frame=35475 fps=465 q=-0.0 size=N/A time=00:24:39.60 bitrate=N/A speed=19.4x    [Parsed_psnr_10 @ 00000189fc269dc0] PSNR y:48.829341 u:50.712057 v:50.281602 average:49.315966 min:40.583510 max:inf
[out#0/null @ 00000189fc94e5c0] video:15315KiB audio:278820KiB subtitle:0KiB other streams:0KiB global headers:0KiB muxing overhead: unknown
frame=35642 fps=465 q=-0.0 Lsize=N/A time=00:24:46.56 bitrate=N/A speed=19.4x    
